<?xml version="1.0" encoding="UTF-8"?>
<!DOCTYPE svg PUBLIC "-//W3C//DTD SVG 1.1//EN" "http://www.w3.org/Graphics/SVG/1.1/DTD/svg11.dtd">
<svg xmlns="http://www.w3.org/2000/svg" version="1.1" width="283px" height="97px" style="shape-rendering:geometricPrecision; text-rendering:geometricPrecision; image-rendering:optimizeQuality; fill-rule:evenodd; clip-rule:evenodd" xmlns:xlink="http://www.w3.org/1999/xlink">
<g><path style="opacity:1" fill="#046a8c" d="M -0.5,-0.5 C 32.5,-0.5 65.5,-0.5 98.5,-0.5C 98.5,31.8333 98.5,64.1667 98.5,96.5C 65.5,96.5 32.5,96.5 -0.5,96.5C -0.5,64.1667 -0.5,31.8333 -0.5,-0.5 Z"/></g>
<g><path style="opacity:1" fill="#fbfbfb" d="M 98.5,-0.5 C 159.833,-0.5 221.167,-0.5 282.5,-0.5C 282.5,31.8333 282.5,64.1667 282.5,96.5C 221.167,96.5 159.833,96.5 98.5,96.5C 98.5,64.1667 98.5,31.8333 98.5,-0.5 Z"/></g>
<g><path style="opacity:1" fill="#292526" d="M 130.5,12.5 C 133.85,12.335 137.183,12.5017 140.5,13C 143.743,13.9082 146.077,15.9082 147.5,19C 145.833,19.8333 144.167,20.6667 142.5,21.5C 138.223,16.0739 134.223,16.2406 130.5,22C 130.99,23.982 131.99,25.6487 133.5,27C 138.59,28.9583 143.09,31.7916 147,35.5C 150.293,46.2577 146.46,52.591 135.5,54.5C 128.08,54.793 123.746,51.293 122.5,44C 123.944,41.9655 125.944,41.1322 128.5,41.5C 129.76,47.5747 133.427,49.7414 139.5,48C 143.354,43.8142 143.021,39.8142 138.5,36C 132.643,34.6636 128.143,31.497 125,26.5C 124.333,23.8333 124.333,21.1667 125,18.5C 126.36,15.9774 128.193,13.9774 130.5,12.5 Z"/></g>
<g><path style="opacity:1" fill="#292526" d="M 199.5,12.5 C 208.934,10.7015 216.934,13.2015 223.5,20C 222,21.5 220.5,23 219,24.5C 214.116,18.7803 207.95,16.9469 200.5,19C 190.79,25.3706 188.957,33.5372 195,43.5C 202.333,50.1667 209.667,50.1667 217,43.5C 217.402,42.1279 217.902,40.7946 218.5,39.5C 215.232,38.513 211.898,38.1796 208.5,38.5C 208.5,36.5 208.5,34.5 208.5,32.5C 214.167,32.5 219.833,32.5 225.5,32.5C 224.931,49.3003 216.264,56.467 199.5,54C 184.916,45.5868 181.749,34.0868 190,19.5C 193.145,17.0235 196.312,14.6902 199.5,12.5 Z"/></g>
<g><path style="opacity:1" fill="#e9f2f5" d="M 46.5,12.5 C 55.1361,12.8836 55.8027,13.7169 48.5,15C 46.5864,16.4133 45.2531,18.2466 44.5,20.5C 55.2016,22.766 64.3682,27.766 72,35.5C 72.6667,36.5 72.6667,37.5 72,38.5C 68.2483,32.8628 63.0816,29.0295 56.5,27C 52.2543,25.6883 47.9209,24.855 43.5,24.5C 39.7724,24.299 36.4391,25.299 33.5,27.5C 32.8515,23.9388 34.5181,21.7721 38.5,21C 40.0205,16.9823 42.6872,14.149 46.5,12.5 Z"/></g>
<g><path style="opacity:1" fill="#828080" d="M 178.5,13.5 C 171.167,13.5 163.833,13.5 156.5,13.5C 156.5,26.8333 156.5,40.1667 156.5,53.5C 155.504,40.0102 155.171,26.3435 155.5,12.5C 163.352,12.1746 171.018,12.508 178.5,13.5 Z"/></g>
<g><path style="opacity:1" fill="#242021" d="M 178.5,13.5 C 178.5,15.1667 178.5,16.8333 178.5,18.5C 173.167,18.5 167.833,18.5 162.5,18.5C 162.5,21.8333 162.5,25.1667 162.5,28.5C 167.833,28.5 173.167,28.5 178.5,28.5C 178.5,30.5 178.5,32.5 178.5,34.5C 173.167,34.5 167.833,34.5 162.5,34.5C 162.5,39.1667 162.5,43.8333 162.5,48.5C 167.833,48.5 173.167,48.5 178.5,48.5C 178.5,50.1667 178.5,51.8333 178.5,53.5C 171.167,53.5 163.833,53.5 156.5,53.5C 156.5,40.1667 156.5,26.8333 156.5,13.5C 163.833,13.5 171.167,13.5 178.5,13.5 Z"/></g>
<g><path style="opacity:1" fill="#272324" d="M 233.5,13.5 C 238.328,13.3852 239.661,15.5519 237.5,20C 231.339,20.878 230.006,18.7113 233.5,13.5 Z"/></g>
<g><path style="opacity:1" fill="#221f1f" d="M 232.5,28.5 C 234.167,28.5 235.833,28.5 237.5,28.5C 237.5,36.8333 237.5,45.1667 237.5,53.5C 235.833,53.5 234.167,53.5 232.5,53.5C 232.5,45.1667 232.5,36.8333 232.5,28.5 Z"/></g>
<g><path style="opacity:1" fill="#7e7b7c" d="M 232.5,28.5 C 234.265,27.5386 236.265,27.2053 238.5,27.5C 238.5,36.5 238.5,45.5 238.5,54.5C 236.265,54.7947 234.265,54.4614 232.5,53.5C 234.167,53.5 235.833,53.5 237.5,53.5C 237.5,45.1667 237.5,36.8333 237.5,28.5C 235.833,28.5 234.167,28.5 232.5,28.5 Z"/></g>
<g><path style="opacity:1" fill="#f1f6f8" d="M 41.5,31.5 C 42.5676,30.5655 43.901,30.2322 45.5,30.5C 45.5,34.1667 45.5,37.8333 45.5,41.5C 48.1667,41.5 50.8333,41.5 53.5,41.5C 53.6641,38.8127 53.4974,36.146 53,33.5C 49.9854,31.7262 50.4854,31.2262 54.5,32C 55.4601,35.73 55.7935,39.5633 55.5,43.5C 57.8056,43.9926 60.139,44.3259 62.5,44.5C 62.927,41.2123 62.2603,38.2123 60.5,35.5C 60.6667,35.1667 60.8333,34.8333 61,34.5C 61.7504,35.1258 62.5838,35.6258 63.5,36C 64.2883,39.0757 64.7883,42.2423 65,45.5C 71.2664,48.2953 76.5997,52.2953 81,57.5C 82.1871,59.0444 82.5205,60.7111 82,62.5C 79.8333,59 77,56.1667 73.5,54C 56.0936,45.3614 38.0936,43.6947 19.5,49C 17,50.1667 15.1667,52 14,54.5C 11.6834,49.285 13.1834,45.4517 18.5,43C 26.6508,40.7184 34.9841,39.8851 43.5,40.5C 44.0545,36.9878 43.3878,33.9878 41.5,31.5 Z"/></g>
<g><path style="opacity:1" fill="#f4f9fa" d="M 27.5,54.5 C 30.5,54.5 33.5,54.5 36.5,54.5C 36.5,64.1667 36.5,73.8333 36.5,83.5C 34.1667,83.5 31.8333,83.5 29.5,83.5C 29.5,74.8333 29.5,66.1667 29.5,57.5C 25.6266,57.666 24.9599,56.666 27.5,54.5 Z"/></g>
<g><path style="opacity:1" fill="#f7fafb" d="M 46.5,54.5 C 50.1352,55.1143 53.8019,55.4476 57.5,55.5C 57.5,64.5 57.5,73.5 57.5,82.5C 55.8333,82.5 54.1667,82.5 52.5,82.5C 52.5,73.8333 52.5,65.1667 52.5,56.5C 49.9179,56.9746 47.9179,56.3079 46.5,54.5 Z"/></g>
<g><path style="opacity:1" fill="#f0f6f8" d="M 67.5,58.5 C 69.5504,58.9612 71.5504,59.6279 73.5,60.5C 74.4973,67.8032 74.8306,75.1365 74.5,82.5C 73.1667,82.5 71.8333,82.5 70.5,82.5C 70.6663,75.4921 70.4996,68.4921 70,61.5C 68.583,60.9221 67.7496,59.9221 67.5,58.5 Z"/></g>
<g><path style="opacity:1" fill="#282325" d="M 121.5,65.5 C 122.5,65.5 123.5,65.5 124.5,65.5C 124.334,70.8437 124.501,76.1771 125,81.5C 126.666,84.3788 129.166,85.2121 132.5,84C 133.126,83.2496 133.626,82.4162 134,81.5C 134.499,76.1771 134.666,70.8437 134.5,65.5C 135.5,65.5 136.5,65.5 137.5,65.5C 137.861,71.5933 137.361,77.5933 136,83.5C 131.667,88.8333 127.333,88.8333 123,83.5C 121.639,77.5933 121.139,71.5933 121.5,65.5 Z"/></g>
<g><path style="opacity:1" fill="#262122" d="M 166.5,65.5 C 167.5,65.5 168.5,65.5 169.5,65.5C 169.5,72.5 169.5,79.5 169.5,86.5C 168.5,86.5 167.5,86.5 166.5,86.5C 166.5,79.5 166.5,72.5 166.5,65.5 Z"/></g>
<g><path style="opacity:1" fill="#262223" d="M 242.5,65.5 C 243.5,65.5 244.5,65.5 245.5,65.5C 245.5,72.5 245.5,79.5 245.5,86.5C 244.5,86.5 243.5,86.5 242.5,86.5C 242.5,79.5 242.5,72.5 242.5,65.5 Z"/></g>
<g><path style="opacity:1" fill="#272324" d="M 142.5,64.5 C 147.798,69.2969 152.965,74.2969 158,79.5C 158.499,74.8452 158.666,70.1785 158.5,65.5C 159.5,65.5 160.5,65.5 161.5,65.5C 161.666,72.5079 161.5,79.5079 161,86.5C 156,81.5 151,76.5 146,71.5C 145.501,76.1548 145.334,80.8215 145.5,85.5C 144.5,85.5 143.5,85.5 142.5,85.5C 142.5,78.5 142.5,71.5 142.5,64.5 Z"/></g>
<g><path style="opacity:1" fill="#2a2627" d="M 209.5,65.5 C 220.854,64.292 223.521,68.4587 217.5,78C 218.701,80.2339 220.035,82.4006 221.5,84.5C 220.635,85.5827 219.635,85.7494 218.5,85C 216.789,82.4112 214.955,79.9112 213,77.5C 212.503,80.146 212.336,82.8127 212.5,85.5C 211.5,85.5 210.5,85.5 209.5,85.5C 209.5,78.8333 209.5,72.1667 209.5,65.5 Z"/></g>
<g><path style="opacity:1" fill="#332f30" d="M 229.5,64.5 C 232.755,64.0136 235.422,65.0136 237.5,67.5C 235.269,67.8867 232.936,68.0534 230.5,68C 229.005,71.6525 230.339,73.6525 234.5,74C 240.304,79.9254 239.138,84.0921 231,86.5C 228.053,86.0533 226.22,84.3866 225.5,81.5C 227.231,78.7612 228.397,79.0945 229,82.5C 232.424,84.2671 234.59,83.2671 235.5,79.5C 232.838,77.0683 230.005,74.7349 227,72.5C 226.018,69.2253 226.851,66.5586 229.5,64.5 Z"/></g>
<g><path style="opacity:1" fill="#ededed" d="M 212.5,67.5 C 218.078,67.5247 219.411,69.6914 216.5,74C 215.207,74.49 213.873,74.6567 212.5,74.5C 212.5,72.1667 212.5,69.8333 212.5,67.5 Z"/></g>
<g><path style="opacity:1" fill="#373435" d="M 248.5,65.5 C 252.833,65.5 257.167,65.5 261.5,65.5C 261.5,66.5 261.5,67.5 261.5,68.5C 259.833,68.5 258.167,68.5 256.5,68.5C 256.5,74.5 256.5,80.5 256.5,86.5C 255.5,86.5 254.5,86.5 253.5,86.5C 253.5,80.5 253.5,74.5 253.5,68.5C 251.833,68.5 250.167,68.5 248.5,68.5C 248.5,67.5 248.5,66.5 248.5,65.5 Z"/></g>
<g><path style="opacity:1" fill="#2b2727" d="M 197.5,76.5 C 196.527,78.9479 196.194,81.6146 196.5,84.5C 199.5,84.5 202.5,84.5 205.5,84.5C 202.316,86.4136 198.649,87.0803 194.5,86.5C 194.5,79.5 194.5,72.5 194.5,65.5C 198.167,65.5 201.833,65.5 205.5,65.5C 205.5,66.5 205.5,67.5 205.5,68.5C 202.5,68.5 199.5,68.5 196.5,68.5C 196.5,70.1667 196.5,71.8333 196.5,73.5C 199.5,73.5 202.5,73.5 205.5,73.5C 205.5,74.5 205.5,75.5 205.5,76.5C 202.833,76.5 200.167,76.5 197.5,76.5 Z"/></g>
<g><path style="opacity:1" fill="#322e2f" d="M 263.5,65.5 C 264.822,65.33 265.989,65.6634 267,66.5C 268.08,68.9962 269.414,71.3295 271,73.5C 272.697,71.301 274.197,68.9676 275.5,66.5C 276.5,65.1667 277.5,65.1667 278.5,66.5C 276.867,69.9603 275.034,73.2936 273,76.5C 272.502,79.8168 272.335,83.1501 272.5,86.5C 271.5,86.5 270.5,86.5 269.5,86.5C 269.665,82.8183 269.499,79.1516 269,75.5C 266.888,72.2729 265.055,68.9396 263.5,65.5 Z"/></g>
<g><path style="opacity:1" fill="#322e2f" d="M 172.5,66.5 C 173.568,65.5655 174.901,65.2322 176.5,65.5C 177.782,70.7253 179.615,75.7253 182,80.5C 183.55,75.7315 185.383,71.0648 187.5,66.5C 188.5,65.1667 189.5,65.1667 190.5,66.5C 187.303,73.4277 184.303,80.4277 181.5,87.5C 178.343,80.49 175.343,73.49 172.5,66.5 Z"/></g>
<g><path style="opacity:1" fill="#979595" d="M 197.5,76.5 C 197.5,78.8333 197.5,81.1667 197.5,83.5C 200.385,83.1936 203.052,83.5269 205.5,84.5C 202.5,84.5 199.5,84.5 196.5,84.5C 196.194,81.6146 196.527,78.9479 197.5,76.5 Z"/></g>
</svg>
